<svg xmlns="http://www.w3.org/2000/svg" width="63" height="63" fill="none" viewBox="0 0 63 63"><path d="M62.055 39.12c-4.207 16.876-21.3 27.145-38.177 22.938C7.008 57.85-3.262 40.758.947 23.884 5.152 7.006 22.244-3.265 39.117.943 55.991 5.15 66.26 22.244 62.053 39.12h.001Z" fill="#F7931A"/><path fill-rule="evenodd" clip-rule="evenodd" d="M43.335 27.05c.549-3.672-2.248-5.646-6.07-6.963l1.24-4.975-3.03-.755-1.207 4.844c-.795-.198-1.613-.386-2.425-.57l1.216-4.876L30.033 13l-1.242 4.973a101.49 101.49 0 0 1-1.933-.455l.003-.015-4.176-1.043-.805 3.234s2.247.515 2.199.547c1.226.306 1.449 1.118 1.411 1.761l-1.413 5.668c.085.021.194.052.315.1l-.319-.079-1.981 7.939c-.15.372-.53.931-1.388.72.03.043-2.2-.55-2.2-.55L17 39.267l3.941.982c.445.112.885.226 1.32.34l.838.217-1.253 5.033 3.025.755 1.242-4.979c.825.225 1.627.432 2.412.627l-1.237 4.954 3.028.755 1.254-5.022c5.163.977 9.047.583 10.68-4.086 1.316-3.76-.066-5.93-2.782-7.345 1.978-.458 3.469-1.76 3.866-4.448h.001Zm-6.92 9.702c-.86 3.451-6.262 2.023-8.732 1.37-.222-.058-.42-.11-.588-.152l1.663-6.666c.206.051.458.108.744.172 2.555.573 7.792 1.749 6.914 5.276Zm-6.4-8.37c2.061.55 6.554 1.75 7.336-1.386.8-3.207-3.568-4.174-5.701-4.646-.24-.053-.452-.1-.625-.143l-1.507 6.046c.142.035.31.08.497.13Z" fill="#fff"/></svg>