<svg width="65" height="26" fill="none" xmlns="http://www.w3.org/2000/svg" viewBox="0 0 65 26"><g clip-path="url(#a)" fill-rule="evenodd" clip-rule="evenodd" fill="#fff"><path d="M6.049 10.21a.245.245 0 0 1 .038.032l4.576 6.884c.28.442.7.663 1.26.663h2.855c.531 0 .951-.22 1.26-.663L18.114 14c.17-.296.292-.556.367-.778.075-.222.112-.555.112-1l.034-7.495c0-.21-.086-.34-.258-.392-.172-.051-.324 0-.455.156l-4.439 6.705c-.066.065-.122.092-.169.08-.032-.008-.06-.034-.083-.08L6.255.705C5.975.235 5.555 0 4.995 0H1.512C.881 0 .784.111.672.222.56.333.224.778.224 1.112c0 .221.037.39.112.505l5.713 8.594Zm14.816.115a.125.125 0 0 0-.03-.085V1.493c0-.403.111-.748.335-1.037.224-.288.56-.44 1.008-.456h3.011c.42 0 .777.152 1.07.456.294.304.441.65.441 1.037v23.014c0 .415-.146.767-.44 1.058-.294.29-.651.435-1.07.435h-2.814c-.42 0-.776-.145-1.07-.435a1.43 1.43 0 0 1-.441-1.058V10.325ZM.448 5.89l4.929 7.555c.147.26.26.519.336.778.076.26.117.519.122.778v9.507c0 .415-.146.767-.44 1.058-.294.29-.651.435-1.07.435H1.51c-.42 0-.776-.145-1.07-.435A1.43 1.43 0 0 1 0 24.507V5.777c0-.147.037-.221.112-.221.112 0 .31.28.336.333Zm64.104 14.221-4.929-7.555a3.677 3.677 0 0 1-.336-.778 2.96 2.96 0 0 1-.123-.778V1.493c0-.415.148-.767.441-1.058.294-.29.651-.435 1.07-.435h2.814c.42 0 .776.145 1.07.435.294.29.441.643.441 1.058v18.73c0 .147-.037.222-.112.222-.112 0-.31-.282-.336-.334Zm-34.869 5.556c.212.185.51.296.896.333h5.397c2.407 0 4.478-.746 6.213-2.24 1.736-1.492 2.603-3.344 2.603-5.556 0-1.216-.294-2.391-.881-3.525a8.118 8.118 0 0 0-2.603-2.902c1.091-1.106 1.637-2.571 1.637-4.396 0-2.128-.84-3.884-2.519-5.266C38.775.705 36.788 0 34.465 0h-4.558c-.198 0-.348.037-.448.111-.1.074-.15.185-.152.333v4.223c.02.143.07.254.152.333a.55.55 0 0 0 .336.142h4.712c.783 0 1.399.221 1.847.663.504.47.755 1.023.755 1.66 0 .663-.237 1.23-.713 1.7a2.76 2.76 0 0 1-1.89.704H30.02c-.254-.008-.441.035-.56.131-.119.096-.17.244-.152.444v4a.43.43 0 0 0 .152.334c.1.087.25.151.448.192h6.069c.84 0 1.553.304 2.141.912.56.608.84 1.34.84 2.198 0 .801-.28 1.479-.84 2.032a3.108 3.108 0 0 1-2.141.829h-5.509c-.404-.045-.702.012-.896.17-.193.158-.281.417-.264.778v3c.039.333.164.593.376.778Zm35.131-.33c-.087.232-.263.4-.527.505-.159.106-.476.158-.952.158h-3.088c-.532 0-.952-.221-1.26-.664l-4.276-6.277.03-.02L42.923 1.89c-.299-.37-.41-.704-.336-1 .112-.445.336-.667.56-.778.15-.074.392-.111.727-.111h3.485c.508 0 .915.202 1.218.607l16.237 24.06a.889.889 0 0 1 0 .67Z"/></g><defs><clipPath id="a"><path fill="#fff" d="M0 0h65v26H0z"/></clipPath></defs></svg>