<svg width="215" height="44" fill="none" xmlns="http://www.w3.org/2000/svg" viewBox="0 0 215 44"><path fill-rule="evenodd" clip-rule="evenodd" d="m106.261.304-9.863 1.194V24.91c0 2.427.485 4.753 1.455 6.975a17.743 17.743 0 0 0 3.961 5.693 18.389 18.389 0 0 0 5.877 3.838 18.81 18.81 0 0 0 7.2 1.41v-9.555a8.772 8.772 0 0 1-3.358-.655 8.591 8.591 0 0 1-2.745-1.794 8.313 8.313 0 0 1-1.851-2.66 8.04 8.04 0 0 1-.676-3.252v-8.362h8.63V6.993h-8.63V.304Zm-77.64 38.939 9.071-16.857 1.513 20.307 9.838-.689-2.797-37.52H36.203l-11.68 21.708L12.84 4.485H2.796L0 42.005l9.837.688 1.514-20.307 9.07 16.857h8.2Zm36.166 2.651c2.294.94 4.694 1.41 7.2 1.41 3.008 0 5.888-.564 8.64-1.692a22.063 22.063 0 0 0 7.01-4.565l-7.9-5.952a12.532 12.532 0 0 1-7.75 2.653 8.77 8.77 0 0 1-3.358-.655 8.587 8.587 0 0 1-2.745-1.794 8.29 8.29 0 0 1-2.008-3.045H90.48V22.52c0-2.442-.492-4.758-1.476-6.947a16.938 16.938 0 0 0-4.032-5.57 18.233 18.233 0 0 0-5.897-3.631 19.686 19.686 0 0 0-7.088-1.291 19.7 19.7 0 0 0-7.088 1.29 18.231 18.231 0 0 0-5.898 3.633 16.938 16.938 0 0 0-4.032 5.569 16.755 16.755 0 0 0-1.475 6.947v2.866c0 2.428.485 4.753 1.455 6.976a17.75 17.75 0 0 0 3.961 5.693 18.384 18.384 0 0 0 5.877 3.838ZM153.11 6.993h-15.781c-2.506 0-4.906.47-7.2 1.41a18.385 18.385 0 0 0-5.876 3.838 17.746 17.746 0 0 0-3.962 5.693 17.254 17.254 0 0 0-1.455 6.976c0 2.427.485 4.753 1.455 6.975a17.748 17.748 0 0 0 3.962 5.694 18.386 18.386 0 0 0 5.876 3.837 18.81 18.81 0 0 0 7.2 1.41h15.781V6.993Zm27.616 0h15.781c2.506 0 4.906.47 7.2 1.41a18.385 18.385 0 0 1 5.876 3.838 17.746 17.746 0 0 1 3.962 5.693A17.254 17.254 0 0 1 215 24.91c0 2.427-.485 4.753-1.455 6.975a17.748 17.748 0 0 1-3.962 5.694 18.386 18.386 0 0 1-5.876 3.837 18.81 18.81 0 0 1-7.2 1.41h-15.781V6.993Zm-19.479.239h11.342v35.355h-11.342V7.232ZM79.961 19.388c.04.088.078.177.114.266H63.898a7.453 7.453 0 0 1 1.894-2.72 8.417 8.417 0 0 1 2.725-1.672 9.634 9.634 0 0 1 3.469-.625c1.223 0 2.38.208 3.47.625a8.417 8.417 0 0 1 2.723 1.671 7.471 7.471 0 0 1 1.781 2.455Zm57.368 13.883h5.918V16.548h-5.918a8.772 8.772 0 0 0-3.358.655 8.596 8.596 0 0 0-2.744 1.794 8.3 8.3 0 0 0-1.852 2.66 8.04 8.04 0 0 0-.676 3.253c0 1.136.225 2.22.676 3.253a8.302 8.302 0 0 0 1.852 2.659 8.576 8.576 0 0 0 2.744 1.794 8.772 8.772 0 0 0 3.358.655Zm59.178 0h-5.918V16.548h5.918c1.173 0 2.292.219 3.358.655a8.596 8.596 0 0 1 2.744 1.794 8.3 8.3 0 0 1 1.852 2.66 8.04 8.04 0 0 1 .676 3.253 8.04 8.04 0 0 1-.676 3.253 8.302 8.302 0 0 1-1.852 2.659 8.598 8.598 0 0 1-2.744 1.794 8.772 8.772 0 0 1-3.358.655Z" fill="#fff"/></svg>